<?xml version="1.0" standalone="no"?>
<!DOCTYPE svg PUBLIC "-//W3C//DTD SVG 20010904//EN"
 "http://www.w3.org/TR/2001/REC-SVG-20010904/DTD/svg10.dtd">
<svg version="1.0" xmlns="http://www.w3.org/2000/svg"
 width="400.000000pt" height="400.000000pt" viewBox="0 0 400.000000 400.000000"
 preserveAspectRatio="xMidYMid meet">
<metadata>
Created by potrace 1.14, written by Peter Selinger 2001-2017
</metadata>
<g transform="translate(0.000000,400.000000) scale(0.100000,-0.100000)"
fill="#000000" stroke="none">
<path d="M1795 3495 c-131 -29 -320 -112 -431 -190 -64 -44 -84 -49 -84 -19 0
29 -30 13 -87 -47 -72 -75 -170 -211 -209 -289 -30 -61 -64 -82 -64 -40 0 40
-19 18 -44 -52 -43 -123 -51 -186 -36 -297 13 -96 12 -98 -13 -163 -15 -36
-32 -90 -38 -119 -14 -63 -6 -182 16 -253 23 -76 20 -100 -18 -128 -17 -14
-43 -47 -57 -74 -23 -45 -25 -59 -24 -179 1 -142 15 -199 68 -283 45 -72 161
-139 242 -141 29 -1 33 -6 59 -68 16 -38 44 -94 62 -125 18 -31 33 -59 33 -61
0 -6 15 -24 84 -104 24 -28 48 -58 53 -65 14 -22 126 -114 183 -150 75 -47
202 -102 291 -126 115 -31 321 -55 345 -39 6 3 33 8 61 11 28 2 60 9 71 15 12
6 30 11 41 11 11 0 62 21 113 48 74 37 111 65 179 132 71 70 119 133 124 160
0 3 8 19 17 35 46 88 68 226 74 470 5 207 17 327 40 419 9 35 16 115 18 195 2
84 9 168 21 221 14 69 17 115 13 252 l-5 167 29 28 c61 58 115 184 122 284 6
79 -1 100 -29 93 -20 -5 -25 0 -35 33 -13 40 -80 161 -112 202 -17 23 -18 23
-18 3 0 -58 -31 -69 -56 -19 -19 38 -98 152 -127 185 l-21 22 -21 -25 c-14
-18 -33 -28 -63 -32 -24 -3 -42 -2 -42 4 0 5 -10 9 -22 9 -21 -1 -23 4 -23 48
l0 49 -90 -6 c-92 -6 -232 -27 -340 -53 -123 -29 -178 -8 -100 37 19 12 35 23
35 25 0 9 -129 1 -185 -11z m320 -1005 c39 -6 84 -12 100 -14 98 -14 219 -17
290 -6 159 23 172 23 178 3 3 -10 17 -49 31 -88 57 -160 69 -230 70 -400 0
-121 -4 -173 -16 -215 -23 -76 -38 -235 -38 -402 0 -76 -4 -147 -9 -157 -5 -9
-6 -23 -2 -30 8 -12 6 -27 -24 -161 -43 -188 -186 -346 -380 -417 -46 -18
-203 -51 -209 -45 -2 2 -51 5 -108 7 -239 8 -486 117 -638 282 -94 103 -147
182 -206 310 -29 64 -57 120 -62 125 -5 5 -32 11 -60 13 -103 9 -174 55 -217
141 -28 57 -29 64 -30 206 0 134 2 149 21 175 18 24 29 28 78 31 50 3 65 -2
126 -35 73 -39 94 -63 144 -161 23 -45 30 -52 55 -52 27 0 30 4 40 50 6 28 11
90 11 139 0 96 15 191 35 232 8 14 47 48 87 76 92 64 101 74 133 153 57 137
70 166 95 199 42 58 63 62 260 56 96 -3 207 -10 245 -15z"/>
<path d="M2381 1917 c-20 -12 -21 -15 -6 -20 9 -4 54 -7 100 -7 54 0 105 -7
145 -19 79 -25 75 -5 -6 28 -72 29 -196 39 -233 18z"/>
<path d="M1848 1773 c-16 -2 -28 -8 -28 -13 0 -5 -6 -7 -14 -4 -8 3 -36 -4
-63 -16 -62 -29 -41 -36 46 -16 39 9 98 16 133 17 35 0 71 4 82 8 15 6 11 9
-21 19 -39 12 -80 13 -135 5z"/>
<path d="M930 1710 c0 -6 14 -23 30 -37 32 -26 70 -91 70 -118 0 -17 -35 -21
-45 -5 -3 5 -16 15 -28 22 -17 9 -14 2 12 -27 31 -36 33 -42 27 -89 l-6 -51
25 29 c15 16 24 35 21 42 -3 8 0 14 6 14 21 0 3 106 -25 148 -27 42 -87 91
-87 72z"/>
<path d="M2415 1679 l-50 -6 60 -2 c33 -1 70 -4 83 -7 12 -4 22 -2 22 4 0 13
-53 18 -115 11z"/>
<path d="M2555 1660 c11 -5 27 -9 35 -9 9 0 8 4 -5 9 -11 5 -27 9 -35 9 -9 0
-8 -4 5 -9z"/>
<path d="M1871 1649 c-53 -10 -144 -40 -139 -45 2 -2 26 3 53 11 65 20 78 19
72 -4 -5 -19 -11 -21 138 39 27 12 -66 11 -124 -1z"/>
<path d="M2145 1330 c3 -5 27 -16 54 -25 39 -13 58 -14 88 -6 72 20 72 31 -2
24 -39 -3 -87 -1 -108 5 -20 6 -35 7 -32 2z"/>
<path d="M1770 1115 c-30 -36 203 -150 330 -162 75 -8 59 4 -22 16 -83 12
-202 66 -256 118 -31 30 -45 37 -52 28z"/>
<path d="M2298 973 c-8 -10 -4 -11 21 -2 17 6 31 12 31 14 0 9 -42 -1 -52 -12z"/>
<path d="M2164 959 c-3 -5 6 -9 20 -9 31 0 34 6 6 13 -11 3 -23 1 -26 -4z"/>
<path d="M2230 960 c-11 -8 -7 -9 15 -4 37 8 45 14 19 14 -10 0 -26 -5 -34
-10z"/>
</g>
</svg>
