<?xml version="1.0" encoding="utf-8"?>
<!-- Generator: Adobe Illustrator 25.0.1, SVG Export Plug-In . SVG Version: 6.00 Build 0)  -->
<svg version="1.1" id="Capa_1" xmlns="http://www.w3.org/2000/svg" xmlns:xlink="http://www.w3.org/1999/xlink" x="0px" y="0px"
	 viewBox="0 0 512 512" style="enable-background:new 0 0 512 512;" xml:space="preserve">
<style type="text/css">
	.st0{display:none;fill:#5055A0;}
	.st1{display:none;fill:#3F3F8F;}
	.st2{display:none;fill:#D63447;}
	.st3{display:none;fill:#BA2F43;}
	.st4{display:none;fill:#F2F2F6;}
	.st5{display:none;fill:#E1E1E6;}
	.st6{fill:#515151;stroke:#515151;stroke-width:29;stroke-miterlimit:10;}
	.st7{display:none;fill:#6F6F6F;}
	.st8{display:none;fill:#515151;}
</style>
<g>
	<g>
		<path class="st0" d="M179.5,118.8H42.4c-8.1,0-14.7,6.6-14.7,14.7V398c0,8.1,6.6,14.7,14.7,14.7h137.1l17.1-22V140.8L179.5,118.8z
			"/>
		<path class="st1" d="M191,390.6H86.5c-20.3,0-36.7-16.5-36.7-36.7V118.8h-7.3c-8.1,0-14.7,6.6-14.7,14.7V398
			c0,8.1,6.6,14.7,14.7,14.7h137.1l17.1-22H191z"/>
		<path class="st2" d="M331.4,412.7h137.1c8.1,0,14.7-6.6,14.7-14.7V133.5c0-8.1-6.6-14.7-14.7-14.7H331.4l-17.1,22v249.8
			L331.4,412.7z"/>
		<path class="st3" d="M483.2,398v-7.3h-169l17.1,22h137.1C476.6,412.7,483.2,406.1,483.2,398L483.2,398z"/>
		<path class="st4" d="M179.5,118.8h151.8v293.9H179.5V118.8z"/>
		<path class="st5" d="M179.5,390.6h151.8v22H179.5V390.6z"/>
	</g>
	<path class="st6" d="M469,116.8H42.9c-11.9,0-21.6,9.7-21.6,21.6v264.5c0,11.9,9.7,21.6,21.6,21.6H469c11.9,0,21.6-9.7,21.6-21.6
		V138.4C490.5,126.5,480.9,116.8,469,116.8z M476.8,402.8c0,4.3-3.5,7.8-7.8,7.8H338.7l-0.1-264.8c0-3.8-3.1-6.9-6.9-6.9
		s-6.9,3.1-6.9,6.9l0.1,264.8H186.9l0.1-60.6c0-3.8-3.1-6.9-6.9-6.9c-3.8,0-6.9,3.1-6.9,6.9l-0.1,60.6H42.9c-4.3,0-7.8-3.5-7.8-7.8
		V138.4c0-4.3,3.5-7.8,7.8-7.8h130.3l-0.1,225.4c0,3.8,3.1,6.9,6.9,6.9s6.9-3.1,6.9-6.9l0.1-225.4H325v22.5c0,3.8,3.1,6.9,6.9,6.9
		s6.9-3.1,6.9-6.9v-22.5H469c4.3,0,7.8,3.5,7.8,7.8L476.8,402.8L476.8,402.8z"/>
	<g>
		<path class="st7" d="M132.2,146.8c0-60.7,45.4-110.9,104.1-118.3c-5-0.6-10-1-15.2-1c-65.9,0-119.3,53.4-119.3,119.3
			S155.2,266,221.1,266c5.1,0,10.2-0.3,15.2-1C177.6,257.6,132.2,207.5,132.2,146.8L132.2,146.8z"/>
		<path class="st2" d="M340.4,86.6c-5.6,0-10.1-4.5-10.1-10.1V47.7c0-5.6-4.5-10.1-10.1-10.1h-28.3c-5.6,0-10.1-4.5-10.1-10.1
			s4.5-10.1,10.1-10.1h28.3c16.7,0,30.3,13.6,30.3,30.3v28.8C350.5,82.1,346,86.6,340.4,86.6z M181.2,200.4L312.1,69.5
			c3.9-3.9,3.9-10.3,0-14.3c-3.9-3.9-10.3-3.9-14.3,0L167,186.1c-3.9,3.9-3.9,10.3,0,14.3c2,2,4.6,3,7.1,3S179.3,202.4,181.2,200.4z
			"/>
		<path class="st8" d="M261.5,220c-16.7,0-30.3-13.6-30.3-30.3s13.6-30.3,30.3-30.3s30.3,13.6,30.3,30.3S278.3,220,261.5,220z
			 M261.5,179.6c-5.6,0-10.1,4.5-10.1,10.1s4.5,10.1,10.1,10.1s10.1-4.5,10.1-10.1S267.1,179.6,261.5,179.6z M180.7,134.1
			c-16.7,0-30.3-13.6-30.3-30.3s13.6-30.3,30.3-30.3S211,87.1,211,103.8S197.4,134.1,180.7,134.1z M180.7,93.7
			c-5.6,0-10.1,4.5-10.1,10.1s4.5,10.1,10.1,10.1c5.6,0,10.1-4.5,10.1-10.1S186.2,93.7,180.7,93.7z M312.6,238.2
			c24.4-24.4,37.9-56.9,37.9-91.5c0-10.9-1.4-21.8-4.1-32.3c-1.4-5.4-6.9-8.7-12.3-7.3c-5.4,1.4-8.7,6.9-7.3,12.3
			c2.3,8.9,3.4,18,3.4,27.3c0,60.2-49,109.2-109.2,109.2s-109.2-49-109.2-109.2s49-109.2,109.2-109.2c9.4,0,18.7,1.2,27.8,3.6
			c5.4,1.4,10.9-1.8,12.3-7.2c1.4-5.4-1.8-10.9-7.2-12.3c-10.7-2.8-21.8-4.2-32.9-4.2c-34.6,0-67,13.5-91.5,37.9
			c-24.4,24.4-37.9,56.9-37.9,91.5s13.5,67,37.9,91.5c24.4,24.4,56.9,37.9,91.5,37.9S288.2,262.7,312.6,238.2L312.6,238.2z"/>
	</g>
</g>
</svg>
