<?xml version="1.0" encoding="utf-8"?>
<!-- Generator: Adobe Illustrator 25.0.1, SVG Export Plug-In . SVG Version: 6.00 Build 0)  -->
<svg version="1.1" id="Capa_1" xmlns="http://www.w3.org/2000/svg" xmlns:xlink="http://www.w3.org/1999/xlink" x="0px" y="0px"
	 viewBox="0 0 512 512" style="enable-background:new 0 0 512 512;" xml:space="preserve">
<style type="text/css">
	.st0{fill:#515151;}
</style>
<g>
	<g>
		<path class="st0" d="M512,256c0-5.2-2.7-10-7.1-12.7l-51.8-31.9c-0.1-0.1-0.1-0.2,0-0.3l51.9-32.3c4.4-2.7,7.1-7.5,7.1-12.7
			c0-5.2-2.7-10-7-12.7L264,2.3c-4.9-3.1-11.1-3.1-15.9,0L7,153.3c-4.4,2.7-7,7.6-7,12.7c0,5.2,2.7,10,7.1,12.7l51.5,32.1
			c0.1,0.1,0.1,0.2,0,0.3l-51.2,32c-3.4,2.1-6,5.4-7,9.3c-1.6,6.5,1.2,13,6.6,16.3l51.5,32.1c0.1,0.1,0.1,0.2,0,0.3L7.1,333.3
			C2.7,336,0,340.8,0,346s2.7,10,7,12.7l241,151c2.4,1.5,5.2,2.3,8,2.3s5.5-0.8,8-2.3l241-151c5.4-3.4,8.2-9.9,6.6-16.4
			c-1-3.9-3.6-7.2-7-9.3l-51.4-31.7c-0.1-0.1-0.1-0.2,0-0.3l51.9-32.3C509.3,266,512,261.2,512,256z M54.6,158.9L245.7,39.2
			c6.3-3.9,14.3-3.9,20.6,0l191.5,120c5,3.2,5,10.5,0,13.6c-42.6,26.5-195.1,121.5-201.7,125.5c-0.1,0-0.1,0-0.2,0
			C252,295.8,98.1,200,54.6,173C49.4,169.7,49.4,162.2,54.6,158.9z M468.3,346.3l-202.7,127c-5.9,3.7-13.4,3.7-19.3,0L43.5,346.2
			c-0.1-0.1-0.1-0.2,0-0.3l43.6-27.2c0.1,0,0.1,0,0.2,0l160.8,100.1c2.4,1.5,5.2,2.3,7.9,2.3s5.5-0.8,7.9-2.3l160.4-99.8
			c0.1,0,0.1,0,0.2,0l43.9,27C468.5,346,468.5,346.2,468.3,346.3z M248.4,383.6L43.6,256.1c-0.1-0.1-0.1-0.2,0-0.3l43.5-27.2
			c0.1,0,0.1,0,0.2,0l160.8,100.1c2.4,1.5,5.2,2.3,7.9,2.3s5.5-0.8,7.9-2.3l160.4-99.8c0.1,0,0.1,0,0.2,0l43.8,27
			c0.1,0.1,0.1,0.2,0,0.3c-6.9,4.3-167.4,104.2-204.7,127.4C258.9,386.5,253.1,386.5,248.4,383.6z"/>
	</g>
</g>
</svg>
