<?xml version="1.0" encoding="utf-8"?>
<!-- Generator: Adobe Illustrator 25.0.1, SVG Export Plug-In . SVG Version: 6.00 Build 0)  -->
<svg version="1.1" id="_x31__x2C_5" xmlns="http://www.w3.org/2000/svg" xmlns:xlink="http://www.w3.org/1999/xlink" x="0px"
	 y="0px" viewBox="0 0 512 512" style="enable-background:new 0 0 512 512;" xml:space="preserve">
<style type="text/css">
	.st0{display:none;fill:#CFD8DC;}
	.st1{display:none;fill:#607D8B;}
	.st2{fill:#515151;stroke:#515151;stroke-miterlimit:10;}
</style>
<ellipse class="st0" cx="256" cy="202.7" rx="240" ry="122.7"/>
<ellipse class="st1" cx="256" cy="202.7" rx="133.3" ry="48"/>
<path class="st2" d="M256,341.3c-143.6,0-256-60.9-256-138.7S112.4,64,256,64s256,60.9,256,138.7S399.6,341.3,256,341.3z M256,96
	C134.6,96,32,144.9,32,202.7s102.6,106.7,224,106.7s224-48.9,224-106.7S377.4,96,256,96z"/>
<path class="st2" d="M256,266.7c-74.2,0-149.3-22-149.3-64s75.1-64,149.3-64s149.3,22,149.3,64S330.2,266.7,256,266.7z M256,170.7
	c-76.2,0-117.3,22.7-117.3,32s41.1,32,117.3,32s117.3-22.7,117.3-32S332.2,170.7,256,170.7z"/>
<path class="st2" d="M16,362.7c-8.8,0-16-7.2-16-16v-144c0-8.8,7.2-16,16-16s16,7.2,16,16v144C32,355.5,24.8,362.7,16,362.7z"/>
<path class="st2" d="M496,362.7c-8.8,0-16-7.2-16-16v-144c0-8.8,7.2-16,16-16s16,7.2,16,16v144C512,355.5,504.8,362.7,496,362.7z"/>
<path class="st2" d="M368,448c-8.8,0-16-7.2-16-16V325.3c0-8.8,7.2-16,16-16s16,7.2,16,16V432C384,440.8,376.8,448,368,448z"/>
<path class="st2" d="M144,448c-8.8,0-16-7.2-16-16V325.3c0-8.8,7.2-16,16-16s16,7.2,16,16V432C160,440.8,152.8,448,144,448z"/>
</svg>
