<?xml version="1.0" encoding="utf-8"?>
<!-- Generator: Adobe Illustrator 25.0.1, SVG Export Plug-In . SVG Version: 6.00 Build 0)  -->
<svg version="1.1" id="Capa_1" xmlns="http://www.w3.org/2000/svg" xmlns:xlink="http://www.w3.org/1999/xlink" x="0px" y="0px"
	 viewBox="0 0 480 480" style="enable-background:new 0 0 480 480;" xml:space="preserve">
<style type="text/css">
	.st0{fill:#515151;}
</style>
<g>
	<g>
		<g>
			<path class="st0" d="M477,301.9l-38.2-30.6l-43.4-115.1c-3.4-9.5-12.4-15.9-22.5-16H352v-7.5c0-12.3-10-23.5-22.2-24.4
				c-14.1-1-25.8,10.1-25.8,23.9v8H8c-4.4,0-8,3.6-8,8v224c0,4.4,3.6,8,8,8h56.7c4.6,26.1,29.5,43.6,55.6,39
				c19.9-3.5,35.5-19.1,39-39h177.4c4.6,26.1,29.5,43.6,55.6,39c19.9-3.5,35.5-19.1,39-39H472c4.4,0,8-3.6,8-8v-64
				C480,305.7,478.9,303.4,477,301.9z M390.5,188.1l30,80H341c-2.7,0-5-2.2-5-5v-70.1c0-2.7,2.2-5,5-5H390.5z M320,132.1
				c0-4.8,4.2-8.6,9.2-7.9c4,0.6,6.8,4.2,6.8,8.2v7.8h-16V132.1z M114.1,404.1c-19.3,1.2-35.2-14.7-34-34
				c1-15.9,13.9-28.8,29.9-29.9c19.3-1.2,35.2,14.7,34,34C142.9,390.1,130,403.1,114.1,404.1z M386.1,404.1
				c-19.3,1.2-35.2-14.7-34-34c1-15.9,13.9-28.8,29.9-29.9c19.3-1.2,35.2,14.7,34,34C414.9,390.1,402,403.1,386.1,404.1z M464,332.1
				h-24v16h24v16h-32.7c-4.6-26.1-29.5-43.6-55.6-39c-19.9,3.5-35.5,19.1-39,39H159.3c-4.6-26.1-29.5-43.6-55.6-39
				c-19.9,3.5-35.5,19.1-39,39H16v-16h40v-16H16v-48h288v-16H16v-112h356.9c3.3,0,6.3,2.1,7.5,5.2l4.1,10.8H341
				c-11.6,0-20.9,9.4-21,21v70.1c0,11.6,9.4,20.9,21,21h88l35,27.8V332.1z"/>
			<rect x="168" y="332.1" class="st0" width="160" height="16"/>
			<rect x="104" y="364.1" class="st0" width="16" height="16"/>
			<rect x="376" y="364.1" class="st0" width="16" height="16"/>
			<polygon class="st0" points="115.2,181.7 96,196.1 96,172.1 80,172.1 80,196.1 60.8,181.7 51.2,194.5 74.6,212.1 51.2,229.7 
				60.8,242.5 80,228.1 80,252.1 96,252.1 96,228.1 115.2,242.5 124.8,229.7 101.4,212.1 124.8,194.5 			"/>
			<rect x="320" y="60.1" class="st0" width="16" height="32"/>
			
				<rect x="276" y="71.1" transform="matrix(0.7071 -0.7071 0.7071 0.7071 20.8796 226.6216)" class="st0" width="16" height="33.9"/>
			
				<rect x="355" y="80.1" transform="matrix(0.7071 -0.7071 0.7071 0.7071 46.6409 288.8403)" class="st0" width="33.9" height="16"/>
			<path class="st0" d="M304,191.3c0-10.6-8.6-19.2-19.2-19.2h-41.6c-10.6,0-19.2,8.6-19.2,19.2v41.6c0,10.6,8.6,19.2,19.2,19.2
				h41.6c10.6,0,19.2-8.6,19.2-19.2V191.3z M288,191.3v41.6c0,1.8-1.4,3.2-3.2,3.2l0,0h-41.6c-1.8,0-3.2-1.4-3.2-3.2v-41.6
				c0-1.8,1.4-3.2,3.2-3.2h41.6C286.6,188.1,288,189.6,288,191.3L288,191.3z"/>
			<rect y="76.1" class="st0" width="120" height="16"/>
			<rect x="72" y="108.1" class="st0" width="72" height="16"/>
			<rect x="24" y="108.1" class="st0" width="24" height="16"/>
		</g>
	</g>
</g>
</svg>
