<?xml version="1.0" encoding="utf-8"?>
<!-- Generator: Adobe Illustrator 25.0.1, SVG Export Plug-In . SVG Version: 6.00 Build 0)  -->
<svg version="1.1" id="Capa_1" xmlns="http://www.w3.org/2000/svg" xmlns:xlink="http://www.w3.org/1999/xlink" x="0px" y="0px"
	 viewBox="0 0 512 512" style="enable-background:new 0 0 512 512;" xml:space="preserve">
<style type="text/css">
	.st0{fill:#515151;}
</style>
<g>
	<g>
		<g>
			<path class="st0" d="M512,352c0-17.6-14.4-32-32-32H160c-17.6,0-32,14.4-32,32v42.7c0,8.2,3.2,15.7,8.3,21.3
				c-5.1,5.7-8.3,13.1-8.3,21.3V480c0,17.6,14.4,32,32,32h320c17.6,0,32-14.4,32-32v-42.7c0-8.2-3.2-15.7-8.3-21.3
				c5.1-5.7,8.3-13.1,8.3-21.3V352z M490.7,480c0,5.9-4.8,10.7-10.7,10.7H160c-5.9,0-10.7-4.8-10.7-10.7v-42.7
				c0-5.9,4.8-10.7,10.7-10.7h320c5.9,0,10.7,4.8,10.7,10.7V480z M490.7,394.7c0,5.9-4.8,10.7-10.7,10.7H160
				c-5.9,0-10.7-4.8-10.7-10.7V352c0-5.9,4.8-10.7,10.7-10.7h320c5.9,0,10.7,4.8,10.7,10.7V394.7z"/>
			<path class="st0" d="M99.6,475.5c-48.3-14.4-78.3-37.2-78.3-59.5v-64.1c15.9,14.8,40,27.6,71.6,37.1c1,0.3,2.1,0.4,3.1,0.4
				c4.6,0,8.8-3,10.2-7.6c1.7-5.7-1.5-11.6-7.1-13.3c-48-14.4-77.7-37.1-77.7-59.3v-64.4c34.2,32,106.3,53.7,192,53.7
				s157.8-21.7,192-53.7V288c0,5.9,4.8,10.7,10.7,10.7s10.7-4.8,10.7-10.7V96c0-53.8-93.7-96-213.3-96S0,42.2,0,96v320
				c0,33.1,34.1,62.2,93.5,79.9c1,0.3,2,0.4,3.1,0.4c4.6,0,8.8-3,10.2-7.6C108.5,483.1,105.3,477.1,99.6,475.5z M213.3,21.3
				c113.2,0,192,39.4,192,74.7s-78.8,74.7-192,74.7s-192-39.4-192-74.7C21.3,60.7,100.2,21.3,213.3,21.3z M21.3,138.3
				c34.2,32,106.3,53.7,192,53.7s157.8-21.7,192-53.7v64.4c0,35.3-78.8,74.7-192,74.7s-192-39.4-192-74.7
				C21.3,202.7,21.3,138.3,21.3,138.3z"/>
			<path class="st0" d="M458.7,448h-85.3c-5.9,0-10.7,4.8-10.7,10.7s4.8,10.7,10.7,10.7h85.3c5.9,0,10.7-4.8,10.7-10.7
				S464.6,448,458.7,448z"/>
			<path class="st0" d="M181.3,362.7c-5.9,0-10.7,4.8-10.7,10.7s4.8,10.7,10.7,10.7s10.7-4.8,10.7-10.7S187.2,362.7,181.3,362.7z"/>
			<path class="st0" d="M181.3,448c-5.9,0-10.7,4.8-10.7,10.7s4.8,10.7,10.7,10.7s10.7-4.8,10.7-10.7S187.2,448,181.3,448z"/>
			<path class="st0" d="M458.7,362.7h-85.3c-5.9,0-10.7,4.8-10.7,10.7s4.8,10.7,10.7,10.7h85.3c5.9,0,10.7-4.8,10.7-10.7
				C469.3,367.4,464.6,362.7,458.7,362.7z"/>
		</g>
	</g>
</g>
</svg>
