<?xml version="1.0" encoding="utf-8"?>
<!-- Generator: Adobe Illustrator 25.1.0, SVG Export Plug-In . SVG Version: 6.00 Build 0)  -->
<svg version="1.1" id="Capa_1" xmlns="http://www.w3.org/2000/svg" xmlns:xlink="http://www.w3.org/1999/xlink" x="0px" y="0px"
	 viewBox="0 0 512 512" style="enable-background:new 0 0 512 512;" xml:space="preserve">
<style type="text/css">
	.st0{fill:#515151;}
</style>
<g>
	<path class="st0" d="M327,239.9l-106.8-66.7c-4.1-2.6-9.3-2.7-13.5-0.4c-4.2,2.4-6.9,6.8-6.9,11.7v133.4c0,4.9,2.6,9.3,6.9,11.7
		c2,1.1,4.2,1.7,6.5,1.7c2.5,0,4.9-0.7,7.1-2L327,262.5c3.9-2.4,6.3-6.7,6.3-11.3S330.9,242.3,327,239.9L327,239.9z M226.6,293.8
		v-85.3l68.2,42.6L226.6,293.8z"/>
	<path class="st0" d="M414.3,77.7H92.2c-36.8,0-66.7,29.9-66.7,66.7V358c0,36.8,29.9,66.7,66.7,66.7h322.1
		c36.8,0,66.7-29.9,66.7-66.7V144.4C481,107.7,451.1,77.7,414.3,77.7z M454.3,358c0,22.1-18,40-40,40H92.2c-22.1,0-40-18-40-40
		V144.4c0-22.1,18-40,40-40h322.1c22.1,0,40,18,40,40V358z"/>
</g>
</svg>
