<?xml version="1.0" encoding="utf-8"?>
<!-- Generator: Adobe Illustrator 25.0.1, SVG Export Plug-In . SVG Version: 6.00 Build 0)  -->
<svg version="1.1" id="Capa_1" xmlns="http://www.w3.org/2000/svg" xmlns:xlink="http://www.w3.org/1999/xlink" x="0px" y="0px"
	 viewBox="0 0 420.8 420.8" style="enable-background:new 0 0 420.8 420.8;" xml:space="preserve">
<style type="text/css">
	.st0{fill:#515151;stroke:#515151;stroke-width:7;stroke-miterlimit:10;}
</style>
<g>
	<g>
		<g>
			<path class="st0" d="M400,112c-8.1-8.3-19.4-13.2-32.2-13.2h-64.4V98c0-9.4-3.9-18.5-10.5-24.6c-6.6-6.4-15.5-10.2-25.2-10.2
				H151.4c-10.1,0-19,3.8-25.6,10.2c-6.6,6.4-10.5,15.1-10.5,24.6v0.8h-64c-12.8,0-24,4.9-32.2,13.2c-8.1,7.9-13.6,19.3-13.6,31.4
				v188.2c0,12.5,5,23.4,13.6,31.4c8.1,7.9,19.8,13.2,32.2,13.2h316.5c12.8,0,24-4.9,32.2-13.2c8.1-7.9,13.6-19.3,13.6-31.4V143.4
				C413.6,130.9,408.6,119.9,400,112z M393.4,331.6H393c0,6.8-2.7,12.9-7.4,17.4c-4.7,4.5-10.9,7.2-17.8,7.2H51.4
				c-7,0-13.2-2.6-17.8-7.2c-4.7-4.5-7.4-10.6-7.4-17.4V143.4c0-6.8,2.7-12.9,7.4-17.4c4.7-4.5,10.9-7.2,17.8-7.2h74.9
				c5.8,0,10.5-4.5,10.5-10.2v-11c0-4.2,1.6-7.9,4.3-10.6c2.7-2.6,6.6-4.2,10.9-4.2h116c4.3,0,8.1,1.5,10.9,4.2
				c2.7,2.6,4.3,6.4,4.3,10.6v11c0,5.7,4.7,10.2,10.5,10.2h74.9c7,0,13.2,2.6,17.8,7.2c4.7,4.5,7.4,10.6,7.4,17.4V331.6z"/>
			<path class="st0" d="M209.6,144.5c-26.4,0-50.4,10.6-67.5,27.2c-17.5,17-27.9,40.1-27.9,65.8s10.9,49.1,27.9,65.8
				c17.5,17,41.1,27.2,67.5,27.2s50.4-10.6,67.5-27.2c17.5-17,27.9-40.1,27.9-65.8s-10.9-49.1-27.9-65.8
				C260,155.1,236,144.5,209.6,144.5z M262.3,289.3c-13.6,12.9-32.2,21.2-52.7,21.2s-39.2-8.3-52.7-21.2
				c-13.6-13.2-21.7-31.4-21.7-51.4s8.5-38.2,21.7-51.4c13.6-13.2,32.2-21.2,52.7-21.2s39.2,8.3,52.7,21.2
				c13.6,13.2,21.7,31.4,21.7,51.4C284.4,257.9,275.9,276,262.3,289.3z"/>
			<ellipse class="st0" cx="347.7" cy="162.6" rx="19" ry="18.5"/>
		</g>
	</g>
</g>
</svg>
