<?xml version="1.0" encoding="utf-8"?>
<!-- Generator: Adobe Illustrator 25.0.1, SVG Export Plug-In . SVG Version: 6.00 Build 0)  -->
<svg version="1.1" id="Capa_1" xmlns="http://www.w3.org/2000/svg" xmlns:xlink="http://www.w3.org/1999/xlink" x="0px" y="0px"
	 viewBox="0 0 512 512" style="enable-background:new 0 0 512 512;" xml:space="preserve">
<style type="text/css">
	.st0{display:none;}
	.st1{display:inline;fill:#5055A0;}
	.st2{display:inline;fill:#3F3F8F;}
	.st3{display:inline;fill:#E5646E;}
	.st4{display:inline;fill:#E1E1E6;}
	.st5{display:inline;}
	.st6{fill:#DB4655;}
	.st7{fill:#515151;stroke:#515151;stroke-width:23;stroke-miterlimit:10;}
</style>
<g>
	<g class="st0">
		<path class="st1" d="M488.4,95.7H23.5c-8.9,0-16,7.2-16,16v288.6c0,8.9,7.2,16,16,16h464.9c8.9,0,16-7.2,16-16V111.7
			C504.5,102.9,497.3,95.7,488.4,95.7z"/>
		<path class="st2" d="M31.6,352.2V95.7h-8c-8.9,0-16,7.2-16,16v288.6c0,8.9,7.2,16,16,16h464.9c8.9,0,16-7.2,16-16v-8H71.6
			C49.5,392.3,31.6,374.3,31.6,352.2z"/>
		<path class="st3" d="M504.5,111.7c0-8.9-7.2-16-16-16h-13.5L288.1,216.2V95.7h-64.1v120.5L37.1,95.7H23.5c-8.9,0-16,7.2-16,16v3
			l169.2,109.2H7.5v64.1h169.2L7.5,397.2v3c0,8.9,7.2,16,16,16h13.6l186.8-120.5v120.5h64.1V295.8l186.8,120.5h13.5
			c8.9,0,16-7.2,16-16v-3L335.3,288.1h169.2v-64.1H335.3l169.2-109.2V111.7z"/>
		<path class="st4" d="M23.5,95.7c-0.4,0-0.7,0.1-1.1,0.1l1.1,0.7V95.7z"/>
		<g class="st5">
			<path class="st6" d="M7.5,223.9h24v64.1h-24V223.9z"/>
			<path class="st6" d="M223.9,392.3h64.1v24h-64.1L223.9,392.3z"/>
			<path class="st6" d="M23.5,416.3h13.6l37.3-24h-2.7c-13,0-24.4-6.3-31.8-15.9L7.5,397.2v3C7.5,409.1,14.7,416.3,23.5,416.3z"/>
			<path class="st6" d="M504.5,397.2l-7.7-5h-59.1l37.3,24h13.5c8.9,0,16-7.2,16-16L504.5,397.2L504.5,397.2z"/>
			<path class="st6" d="M23.5,95.7c-8.9,0-16,7.2-16,16v3l24,15.5V95.7L23.5,95.7z"/>
		</g>
	</g>
	<path class="st7" d="M481.3,131.7c0-12.9-10.5-23.4-23.4-23.4H45.4c-11.6,0-21,9.4-21,21v255.1c0,12.9,10.5,23.4,23.4,23.4h410.1
		c12.9,0,23.4-10.5,23.4-23.4V131.7z M355.7,293.3h109.4c1.5,0,2.8,1.2,2.8,2.8v70.6c0,2.2-10.1,25.1-11.9,23.9l-136.5-96
		C317.2,293.1,352.9,293.3,355.7,293.3z M274.8,286.7v105c0,1.5-1.2,2.8-2.8,2.8h-38.3c-1.5,0-2.8-1.2-2.8-2.8V289.1
		c0-5-4.1-9.1-9.1-9.1H40.5c-1.5,0-2.8-1.2-2.8-2.8v-38.3c0-1.5,1.2-2.8,2.8-2.8h181.3c5,0,9.1-4.1,9.1-9.1V124.4
		c0-1.5,1.2-2.8,2.8-2.8H272c1.5,0,2.8,1.2,2.8,2.8V227c0,5,4.1,9.1,9.1,9.1h181.3c1.5,0,2.8,1.2,2.8,2.8v38.3
		c0,1.5-1.2,2.8-2.8,2.8H281.4C277.7,280,274.8,283,274.8,286.7z M217.5,394.4H89.6c-2.8,0-3.8-3.6-1.5-5.1l125.2-80.8
		c1.8-1.2,4.3,0.1,4.3,2.3L217.5,394.4L217.5,394.4z M184.2,223.2l-143.6-0.4c-1.6,0-2.8-1.3-2.8-2.8l2.6-91.9
		c0.1-2.2,2.5-3.4,4.3-2.2l141.1,92.3C188,219.6,187,223.2,184.2,223.2z M40.5,293.3l146.6-0.2L46.5,395.7
		c-11.5-16.1-8.8-26.7-8.8-28.9v-70.6C37.7,294.6,39,293.3,40.5,293.3z M290.9,121.7h125.2c2.8,0,3.8,3.6,1.5,5.1l-122,78.7
		c-3.2,2.1-7.4-0.2-7.4-4v-77C288.1,122.9,289.4,121.7,290.9,121.7z M467.9,220c0,1.5-1.2,2.7-2.7,2.8l-159.5,2.4
		c-6.9,0.1,23.2-17.1,28.4-19.7c0.1,0,0.2-0.1,0.2-0.1l115.2-76.1c7.8-5.8,18.8-0.2,18.8,9.6L467.9,220z M467.9,128.4l-145.6,93.9
		c-0.4,0.3-1,0.4-1.5,0.4h-17.9c-2.8,0-3.8-3.6-1.5-5.1l148.1-95.5c0.4-0.3,1-0.4,1.5-0.4h9.3C464.2,121.7,467.4,124.6,467.9,128.4
		L467.9,128.4z M45.4,121.7h9.3c0.5,0,1.1,0.2,1.5,0.4l130.7,84.3c1.1,0.7,2.4,1.1,3.6,1.1c2.2,0,11,4.5,12.2,2.5
		c2-3.1-5.5-12.8-8.6-14.8L88.1,126.7c-2.3-1.5-1.3-5.1,1.5-5.1h125.2c1.5,0,2.8,1.2,2.8,2.8V220c0,1.5-1.2,2.8-2.8,2.8h-29.9
		c-0.5,0-1.1-0.2-1.5-0.4L39.5,129.5c-1.2-0.8-1.6-2.3-1-3.5C39.7,123.4,42.3,121.7,45.4,121.7L45.4,121.7z M37.8,387.7l145.6-93.9
		c0.4-0.3,1-0.4,1.5-0.4h17.9c2.8,0,3.8,3.6,1.5,5.1L56.2,394c-0.4,0.3-1,0.4-1.5,0.4h-9.3C41.5,394.4,38.2,391.5,37.8,387.7
		L37.8,387.7z M460.3,394.4H451c-0.5,0-1.1-0.2-1.5-0.4l-130.7-84.3c-3.1-2-15.7-5.3-17.7-2.2c-2,3.1,7.3,11.5,10.4,13.5l106.1,68.4
		c2.3,1.5,1.3,5.1-1.5,5.1H290.9c-1.5,0-2.8-1.2-2.8-2.8v-95.5c0-1.5,1.2-2.8,2.8-2.8h29.9c0.5,0,1.1,0.2,1.5,0.4l143.9,92.8
		c1.2,0.8,1.6,2.3,1,3.5C465.9,392.7,463.3,394.4,460.3,394.4L460.3,394.4z"/>
</g>
</svg>
