<?xml version="1.0" encoding="utf-8"?>
<!-- Generator: Adobe Illustrator 25.0.1, SVG Export Plug-In . SVG Version: 6.00 Build 0)  -->
<svg version="1.1" id="Layer_1" xmlns="http://www.w3.org/2000/svg" xmlns:xlink="http://www.w3.org/1999/xlink" x="0px" y="0px"
	 viewBox="0 0 512 512" style="enable-background:new 0 0 512 512;" xml:space="preserve">
<style type="text/css">
	.st0{fill:#515151;}
</style>
<path class="st0" d="M416.7,224.9c-7.7,0-15.2,0.9-22.4,2.7l-37.9-91l32.9-11c7.9-2.6,12.1-11.1,9.5-19c-2.6-7.9-11.1-12.1-19-9.5
	l-49.2,16.5c-7.6,3.2-11.3,12-8.1,19.6l9.4,22.6L200.4,190l-13.5-31.5h20.9c8.3,0,15-6.7,15-15s-6.7-15-15-15h-64.3
	c-8.3,0-15,6.7-15,15s6.7,15,15,15h10.8l20,46.6L145.2,239c-14.5-8.9-31.6-14.1-49.9-14.1C42.8,224.9,0,267.7,0,320.3
	s42.8,95.3,95.3,95.3c47.5,0,86.9-34.9,94.1-80.3h50.4c4.8,0,9.3-2.3,12.1-6.2l96.8-132.7l17.8,42.8c-27.2,16.8-45.3,46.9-45.3,81.1
	c0,52.6,42.8,95.3,95.3,95.3s95.3-42.8,95.3-95.3S469.2,224.9,416.7,224.9L416.7,224.9z M95.3,385.6c-36,0-65.3-29.3-65.3-65.3
	s29.3-65.3,65.3-65.3c10.8,0,21,2.7,30,7.3l-41.4,48.3c-3.8,4.4-4.7,10.7-2.2,16s7.8,8.7,13.6,8.7h63.6
	C152.1,364.1,126.2,385.6,95.3,385.6z M127.9,305.3l59.5-69.4l29.7,69.4H127.9z M243.3,290.1l-30.9-72.2l103.2-26.8L243.3,290.1z
	 M416.7,385.6c-36,0-65.3-29.3-65.3-65.3c0-21.7,10.7-41,27-52.9l24.4,58.7c3.2,7.6,12,11.3,19.6,8.1c7.6-3.2,11.3-12,8.1-19.6
	l-24.5-58.7c3.5-0.6,7-0.9,10.6-0.9c36,0,65.3,29.3,65.3,65.3S452.7,385.6,416.7,385.6z"/>
</svg>
