<?xml version="1.0" encoding="utf-8"?>
<!-- Generator: Adobe Illustrator 25.0.1, SVG Export Plug-In . SVG Version: 6.00 Build 0)  -->
<svg version="1.1" id="Layer_1" xmlns="http://www.w3.org/2000/svg" xmlns:xlink="http://www.w3.org/1999/xlink" x="0px" y="0px"
	 viewBox="0 0 512 512" style="enable-background:new 0 0 512 512;" xml:space="preserve">
<style type="text/css">
	.st0{fill:#515151;}
</style>
<g>
	<path class="st0" d="M486,195.2c3.9,0,7-3.1,7-7s-3.1-7-7-7h-28.4v-53.8H486c3.9,0,7-3.1,7-7s-3.1-7-7-7h-28.4V61.4
		c0-3.9-3.1-7-7-7h-51.9V26c0-3.9-3.1-7-7-7s-7,3.1-7,7v28.4h-53.8V26c0-3.9-3.1-7-7-7s-7,3.1-7,7v28.4H263V26c0-3.9-3.1-7-7-7
		s-7,3.1-7,7v28.4h-53.8V26c0-3.9-3.1-7-7-7s-7,3.1-7,7v28.4h-53.8V26c0-3.9-3.1-7-7-7s-7,3.1-7,7v28.4H61.4c-3.9,0-7,3.1-7,7v51.9
		H26c-3.9,0-7,3.1-7,7s3.1,7,7,7h28.4v53.8H26c-3.9,0-7,3.1-7,7s3.1,7,7,7h28.4V249H26c-3.9,0-7,3.1-7,7s3.1,7,7,7h28.4v53.8H26
		c-3.9,0-7,3.1-7,7s3.1,7,7,7h28.4v53.8H26c-3.9,0-7,3.1-7,7s3.1,7,7,7h28.4v51.9c0,3.9,3.1,7,7,7h51.9V486c0,3.9,3.1,7,7,7
		c3.9,0,7-3.1,7-7v-28.4h53.8V486c0,3.9,3.1,7,7,7c3.9,0,7-3.1,7-7v-28.4H249V486c0,3.9,3.1,7,7,7c3.9,0,7-3.1,7-7v-28.4h53.8V486
		c0,3.9,3.1,7,7,7s7-3.1,7-7v-28.4h53.8V486c0,3.9,3.1,7,7,7s7-3.1,7-7v-28.4h51.9c3.9,0,7-3.1,7-7v-51.9H486c3.9,0,7-3.1,7-7
		s-3.1-7-7-7h-28.4v-53.8H486c3.9,0,7-3.1,7-7s-3.1-7-7-7h-28.4V263H486c3.9,0,7-3.1,7-7s-3.1-7-7-7h-28.4v-53.8H486z M443.6,443.6
		H68.4V68.4h375.2V443.6z"/>
	<path class="st0" d="M414.6,371.6c-3.9,0-7,3.1-7,7v29h-29c-3.9,0-7,3.1-7,7s3.1,7,7,7h36c3.9,0,7-3.1,7-7v-36
		C421.6,374.7,418.5,371.6,414.6,371.6z"/>
	<path class="st0" d="M97.4,421.6h36c3.9,0,7-3.1,7-7s-3.1-7-7-7h-29v-29c0-3.9-3.1-7-7-7s-7,3.1-7,7v36
		C90.4,418.5,93.5,421.6,97.4,421.6z"/>
	<path class="st0" d="M378.6,104.4h29v29c0,3.9,3.1,7,7,7s7-3.1,7-7v-36c0-3.9-3.1-7-7-7h-36c-3.9,0-7,3.1-7,7
		S374.7,104.4,378.6,104.4z"/>
	<path class="st0" d="M97.4,140.4c3.9,0,7-3.1,7-7v-29h29c3.9,0,7-3.1,7-7s-3.1-7-7-7h-36c-3.9,0-7,3.1-7,7v36
		C90.4,137.3,93.5,140.4,97.4,140.4z"/>
	<path class="st0" d="M175.6,301.5c9.5,0,18.7-3,26.3-8.4c3.9-2.7,4.2-8.4,0.7-11.6h0c-2.7-2.5-6.8-2.7-9.7-0.5
		c-4.9,3.8-11,5.9-17.3,5.9c-17.1-0.5-30.5-14.8-29.9-31.9c0.5-16.3,13.6-29.4,29.9-29.9c6.3,0.1,12.3,2.2,17.2,5.9
		c2.9,2.2,7,2,9.7-0.5l0.2-0.2c3.4-3.2,3.2-8.8-0.6-11.6c-17.3-12.6-41.7-11.7-58,3.4c-18.6,17.2-19.7,46.1-2.5,64.6
		C150.3,296.3,162.7,301.6,175.6,301.5L175.6,301.5z"/>
	<path class="st0" d="M237.1,278.4c0-4.4,3.6-8,8-8h14.3c18.8,0,32.9-12,32.9-29.2S278.1,212,259.3,212h-30.3c-4.4,0-8,3.6-8,8v72
		c0,4.4,3.6,8,8,8h0c4.4,0,8-3.6,8-8L237.1,278.4z M237.1,234.8c0-4.4,3.6-8,8-8h12.5c10.9,0,18.4,5.5,18.4,14.5
		s-7.6,14.5-18.4,14.5h-12.5c-4.4,0-8-3.6-8-8L237.1,234.8z"/>
	<path class="st0" d="M343.8,301.5c20.6,0.9,38-15.1,38.8-35.7c0-1.1,0-2.2,0-3.3V220c0-4.4-3.6-7.9-7.9-7.9h0
		c-4.4,0-7.9,3.6-7.9,7.9v42c0,14.6-9.5,25.1-22.9,25.1c-13.3,0-22.8-10.5-22.8-25.1v-42c0-4.4-3.6-7.9-7.9-7.9H313
		c-4.4,0-7.9,3.6-7.9,7.9v42.5c-0.9,20.6,15,38.1,35.6,39C341.7,301.5,342.8,301.5,343.8,301.5z"/>
</g>
</svg>
