<?xml version="1.0" encoding="utf-8"?>
<!-- Generator: Adobe Illustrator 25.0.1, SVG Export Plug-In . SVG Version: 6.00 Build 0)  -->
<svg version="1.1" id="Layer_1" xmlns="http://www.w3.org/2000/svg" xmlns:xlink="http://www.w3.org/1999/xlink" x="0px" y="0px"
	 viewBox="0 0 512.1 512.1" style="enable-background:new 0 0 512.1 512.1;" xml:space="preserve">
<style type="text/css">
	.st0{fill:#515151;}
</style>
<g transform="translate(-1)">
	<g>
		<g>
			<path class="st0" d="M504.4,111.4l-1.3-1.3c-11.8-11.8-31-11.8-42.8,0l-46.1,46.6c-2.4,2.4-6.3,2.5-8.8,0.2l-64.6-59.7
				c-6.3-5.8-14.4-9-23-9h-96.1c-2.3,0-4.4,0.9-6.1,2.4l-81.5,77.4c-11.9,11.9-12.8,31.2-1.8,42.9c5.8,6.3,13.7,9.7,22.2,9.7h0.1
				c8.4,0,16.5-3.6,22.1-9.7l57.5-60.9h20.6L120.6,300.2H37.8c-19.6,0-35.8,14.7-36.8,33.4c-0.5,9.8,2.9,19.1,9.6,26.2
				c6.6,7,16,11,25.6,11h123.6c2.4,0,4.8-1,6.4-2.8l63.3-67.6l53.2,55.7l-16.1,102.7c-4.1,17,4.1,34.4,19.4,41.2
				c4.7,2.1,9.7,3.2,14.7,3.2c5.4,0,10.7-1.2,15.6-3.7c9.5-4.7,16.3-13.3,18.8-24l27.5-147.3c0.5-2.9-0.4-5.8-2.4-7.9L287,247.3
				l58.2-58.1l40.6,40.6c11.3,11.3,31.1,11.3,42.4,0l76.2-76.1c5.6-5.6,8.7-13.1,8.7-21.1C513.1,124.5,510,117.1,504.4,111.4z"/>
			<path class="st0" d="M407.1,114.8c29.2,0,53-23.8,53-53s-23.8-53-53-53c-29.2,0-53,23.8-53,53
				C354.1,91.1,377.9,114.8,407.1,114.8z"/>
		</g>
	</g>
</g>
</svg>
