<?xml version="1.0" encoding="utf-8"?>
<!-- Generator: Adobe Illustrator 25.0.1, SVG Export Plug-In . SVG Version: 6.00 Build 0)  -->
<svg version="1.1" id="Capa_1" xmlns="http://www.w3.org/2000/svg" xmlns:xlink="http://www.w3.org/1999/xlink" x="0px" y="0px"
	 viewBox="0 0 512 512" style="enable-background:new 0 0 512 512;" xml:space="preserve">
<style type="text/css">
	.st0{display:none;}
	.st1{display:inline;fill:#E5646E;}
	.st2{display:inline;fill:#DB4655;}
	.st3{display:inline;fill:#FFE07D;}
	.st4{display:inline;fill:#FFD064;}
	.st5{display:inline;fill:#FFFFFF;}
	.st6{display:inline;fill:#FFC269;}
	.st7{stroke:#515151;stroke-width:29;stroke-miterlimit:10;}
	.st8{fill:#515151;stroke:#515151;stroke-miterlimit:10;}
</style>
<g>
	<g class="st0">
		<path class="st1" d="M507.9,83.7H23.2c-9.2,0-16.7,7.5-16.7,16.7v300.8c0,9.2,7.5,16.7,16.7,16.7h484.7c9.2,0,16.7-7.5,16.7-16.7
			V100.4C524.6,91.2,517.1,83.7,507.9,83.7L507.9,83.7z"/>
		<path class="st2" d="M31.6,351.1V83.7h-8.4c-9.2,0-16.7,7.5-16.7,16.7v300.8c0,9.2,7.5,16.7,16.7,16.7h484.7
			c9.2,0,16.7-7.5,16.7-16.7v-8.4H73.4C50.3,392.9,31.6,374.2,31.6,351.1L31.6,351.1z"/>
		<path class="st3" d="M6.5,150.6h518.1v200.6H6.5V150.6z"/>
		<path class="st2" d="M156.9,184c-9.2,0-16.7,7.5-16.7,16.7v25.1h33.4v-25.1C173.6,191.5,166.1,184,156.9,184z"/>
		<path class="st1" d="M156.9,309.3c-23.1,0-41.8-18.7-41.8-41.8v-41.8c0-4.6,3.7-8.4,8.4-8.4h66.9c4.6,0,8.4,3.7,8.4,8.4v41.8
			C198.7,290.6,180,309.3,156.9,309.3z"/>
		<path class="st4" d="M6.5,150.6h25.1v200.6H6.5V150.6z"/>
		<path class="st5" d="M190.3,217.4h-33.4v41.8h41.8v-33.4C198.7,221.2,195,217.4,190.3,217.4L190.3,217.4z"/>
		<path class="st6" d="M115.1,259.2v8.4c0,23.1,18.7,41.8,41.8,41.8v-50.1H115.1z"/>
	</g>
	<g>
		<path class="st7" d="M469.6,109.8H52.1c-11.7,0-21.1,9.5-21.1,21.1v259.1c0,11.7,9.5,21.1,21.1,21.1h417.5
			c11.7,0,21.1-9.5,21.1-21.1V131C490.7,119.3,481.2,109.8,469.6,109.8z M469.6,397.7H52.1c-4.2,0-7.7-3.4-7.7-7.7v-36.5h14.9
			c3.7,0,6.7-3,6.7-6.7c0-3.7-3-6.7-6.7-6.7H44.5V180.9l424.4-0.1c3.7,0,6.7-3,6.7-6.7c0-3.7-3-6.7-6.7-6.7l-424.4,0.1V131
			c0-4.2,3.4-7.7,7.7-7.7h417.5c4.2,0,7.7,3.4,7.7,7.7v36.5h-14.9c-3.7,0-6.7,3-6.7,6.7c0,3.7,3,6.7,6.7,6.7h14.9v159.3l-425.6,0.2
			c-3.7,0-6.7,3-6.7,6.7c0,3.7,3,6.7,6.7,6.7l425.6-0.2v36.5C477.3,394.3,473.8,397.7,469.6,397.7L469.6,397.7z"/>
		<path class="st8" d="M167.3,320.6c23.6,0,42.7-19.2,42.7-42.7v-43.2c0-3.7-3-6.7-6.7-6.7h-14.9v-7.7c0-11.7-9.5-21.1-21.1-21.1
			c-11.7,0-21.1,9.5-21.1,21.1v7.7h-14.9c-3.7,0-6.7,3-6.7,6.7v43.2C124.6,301.5,143.7,320.6,167.3,320.6L167.3,320.6z M138,277.9
			v-0.5h22.5v28.9C147.7,303.3,138,291.7,138,277.9z M174,306.4v-28.9h22.5v0.5C196.5,291.7,186.9,303.3,174,306.4z M196.5,264H174
			v-22.5h22.5V264z M159.6,220.3c0-4.2,3.4-7.7,7.7-7.7s7.7,3.4,7.7,7.7v7.7h-15.3V220.3z M160.6,241.5V264H138v-22.5L160.6,241.5z"
			/>
		<path class="st8" d="M102.5,313.4c3.7,0,6.7-3,6.7-6.7v-72c0-3.7-3-6.7-6.7-6.7c-3.7,0-6.7,3-6.7,6.7v72
			C95.8,310.4,98.8,313.4,102.5,313.4z"/>
		<path class="st8" d="M232.1,313.4c3.7,0,6.7-3,6.7-6.7v-72c0-3.7-3-6.7-6.7-6.7s-6.7,3-6.7,6.7v72
			C225.3,310.4,228.4,313.4,232.1,313.4z"/>
	</g>
</g>
</svg>
