<?xml version="1.0" encoding="utf-8"?>
<!-- Generator: Adobe Illustrator 25.0.1, SVG Export Plug-In . SVG Version: 6.00 Build 0)  -->
<svg version="1.1" id="Capa_1" xmlns="http://www.w3.org/2000/svg" xmlns:xlink="http://www.w3.org/1999/xlink" x="0px" y="0px"
	 viewBox="0 0 512 512" style="enable-background:new 0 0 512 512;" xml:space="preserve">
<style type="text/css">
	.st0{fill:#515151;}
</style>
<g>
	<path class="st0" d="M361.9,321.7l-24.6-39.6c25.8,32.1,73.6,33.7,101.5,4c25.5-27.1,24.2-69.6-2.9-95.1
		c-27.1-25.5-69.6-24.2-95.1,2.9c-19.6,20.8-23.1,50.4-12.1,74.3l-59.5-95.9l88.3-25.5c27.4-7.9,40.4-39.3,26.5-64.3
		c-10.1-18.1-31.1-26.8-51.1-21l-133.7,38.6c-34.7,10-50.2,50.3-31.2,81l40.4,65.1l-70.9,44C222.8,292.1,284.4,318.1,361.9,321.7
		L361.9,321.7z"/>
	<path class="st0" d="M19.1,365.9c193.8-55.1,267,56.1,481.7,0.1c8-2.1,12.8-10.3,10.7-18.3s-10.3-12.8-18.3-10.7
		c-206.3,53.8-279.6-57.5-482.3,0.1c-8,2.3-12.6,10.6-10.3,18.5C2.8,363.5,11.1,368.2,19.1,365.9L19.1,365.9z"/>
	<path class="st0" d="M493.2,406.9c-206.6,53.9-279.2-57.7-482.3,0.1c-8,2.3-12.6,10.6-10.3,18.5s10.6,12.6,18.5,10.3
		c193.8-55.1,267,56.1,481.7,0.1c8-2.1,12.8-10.3,10.7-18.3C509.4,409.7,501.2,404.9,493.2,406.9L493.2,406.9z"/>
</g>
</svg>
