<?xml version="1.0" encoding="utf-8"?>
<!-- Generator: Adobe Illustrator 25.0.1, SVG Export Plug-In . SVG Version: 6.00 Build 0)  -->
<svg version="1.1" id="Capa_1" xmlns="http://www.w3.org/2000/svg" xmlns:xlink="http://www.w3.org/1999/xlink" x="0px" y="0px"
	 viewBox="0 0 512 512" style="enable-background:new 0 0 512 512;" xml:space="preserve">
<style type="text/css">
	.st0{fill:#515151;}
</style>
<g>
	<g>
		<path class="st0" d="M384,192H128c-5.9,0-10.7,4.8-10.7,10.7v234.6c0,5.9,4.8,10.7,10.7,10.7h256c5.9,0,10.7-4.8,10.7-10.6V202.7
			C394.6,196.8,389.9,192,384,192z M373.4,426.7H138.7V213.3h234.7V426.7z"/>
	</g>
</g>
<g>
	<g>
		<path class="st0" d="M106.7,277.3h-64c-17.6,0-32,14.4-32,32V480c0,17.6,14.4,32,32,32h64c17.6,0,32-14.4,32-32V309.3
			C138.6,291.7,124.2,277.3,106.7,277.3z M117.3,480c0,5.9-4.8,10.7-10.7,10.7h-64c-5.9,0-10.7-4.8-10.7-10.7V309.4
			c0-5.9,4.8-10.7,10.7-10.7v-0.1h64c5.9,0,10.7,4.8,10.7,10.7V480z"/>
	</g>
</g>
<g>
	<g>
		<path class="st0" d="M469.4,277.3h-64c-17.6,0-32,14.4-32,32V480c0,17.6,14.4,32,32,32h64c17.6,0,32-14.4,32-32V309.3
			C501.4,291.7,487,277.3,469.4,277.3z M480,480c0,5.9-4.8,10.7-10.7,10.7h-64c-5.9,0-10.7-4.8-10.7-10.7V309.4
			c0-5.9,4.8-10.7,10.7-10.7v-0.1h64c5.9,0,10.7,4.8,10.7,10.7V480z"/>
	</g>
</g>
<g>
	<g>
		<path class="st0" d="M277.4,106.6h-42.7c-5.9,0-10.7,4.8-10.7,10.7v85.3c0,5.9,4.8,10.7,10.7,10.7h42.7c5.9,0,10.6-4.7,10.7-10.7
			v-85.3C288,111.4,283.2,106.6,277.4,106.6z M266.6,192h-21.3v-64h21.3V192z"/>
	</g>
</g>
<g>
	<g>
		<path class="st0" d="M234.6,0h-85.3C119.9,0,96,24,96,53.4s23.9,53.3,53.3,53.3c52.9,0,96-43.1,96-96C245.4,4.8,240.6,0,234.6,0z
			 M149.4,85.3c-17.6,0-32-14.4-32-32s14.4-32,32-32h73.9C218.1,57.4,186.9,85.3,149.4,85.3z"/>
	</g>
</g>
<g>
	<g>
		<path class="st0" d="M362.6,0h-85.3c-5.9,0-10.7,4.8-10.7,10.7c0,52.9,43.1,96,96,96c29.4,0,53.3-24,53.3-53.4S392,0,362.6,0z
			 M362.6,85.3c-37.5,0-68.7-27.9-73.9-64h73.9c17.6,0,32,14.4,32,32S380.2,85.3,362.6,85.3z"/>
	</g>
</g>
<g>
	<g>
		<path class="st0" d="M165.4,21.3c-14.7,0-26.7,12-26.7,26.7s12,26.7,26.7,26.7s26.7-12,26.7-26.7S180.1,21.3,165.4,21.3z
			 M160.1,48c0-2.9,2.4-5.3,5.3-5.3c2.9,0,5.3,2.4,5.4,5.3C170.8,53.9,160.1,53.9,160.1,48z"/>
	</g>
</g>
<g>
	<g>
		<path class="st0" d="M346.6,21.3c-14.7,0-26.7,12-26.7,26.7s12,26.7,26.7,26.7s26.7-12,26.7-26.7S361.4,21.3,346.6,21.3z
			 M341.4,48c0-2.9,2.4-5.3,5.3-5.3s5.3,2.4,5.4,5.3C352,53.9,341.4,53.9,341.4,48z"/>
	</g>
</g>
<g>
	<g>
		<path class="st0" d="M255.9,21.3c-5.9,0-10.7,4.8-10.7,10.7v85.3c0,5.9,4.8,10.7,10.7,10.7c5.9,0,10.7-4.8,10.7-10.7V32
			C266.6,26.1,261.9,21.3,255.9,21.3z"/>
	</g>
</g>
<g>
	<g>
		<path class="st0" d="M277.4,21.3h-42.7c-5.9,0-10.7,4.8-10.7,10.7s4.8,10.7,10.7,10.7h42.7c5.9,0,10.7-4.8,10.7-10.7
			C288,26.1,283.2,21.3,277.4,21.3z"/>
	</g>
</g>
<g>
	<g>
		<path class="st0" d="M85.2,320H64c-5.9,0-10.7,4.7-10.7,10.6S58,341.3,64,341.3h21.4c5.9,0,10.6-4.7,10.6-10.6S91.2,320,85.2,320z
			"/>
	</g>
</g>
<g>
	<g>
		<path class="st0" d="M85.2,362.6H64c-5.9,0-10.7,4.8-10.7,10.7S58,384,64,384h21.4c5.9,0,10.6-4.8,10.6-10.7
			S91.2,362.6,85.2,362.6z"/>
	</g>
</g>
<g>
	<g>
		<path class="st0" d="M85.2,405.3H64c-5.9,0-10.7,4.8-10.7,10.7S58,426.7,64,426.7h21.4c5.9,0,10.6-4.8,10.6-10.7
			S91.2,405.3,85.2,405.3z"/>
	</g>
</g>
<g>
	<g>
		<path class="st0" d="M85.2,448H64c-5.9,0-10.7,4.7-10.7,10.6S58,469.3,64,469.3h21.4c5.9,0,10.6-4.7,10.6-10.6S91.2,448,85.2,448z
			"/>
	</g>
</g>
<g>
	<g>
		<path class="st0" d="M448,320h-21.3c-5.9,0-10.7,4.7-10.7,10.6s4.8,10.7,10.7,10.7H448c5.9,0,10.7-4.7,10.7-10.6
			S453.9,320,448,320z"/>
	</g>
</g>
<g>
	<g>
		<path class="st0" d="M448,362.6h-21.3c-5.9,0-10.7,4.8-10.7,10.7s4.8,10.7,10.7,10.7H448c5.9,0,10.7-4.8,10.7-10.7
			S453.9,362.6,448,362.6z"/>
	</g>
</g>
<g>
	<g>
		<path class="st0" d="M448,405.3h-21.3c-5.9,0-10.7,4.8-10.7,10.7s4.8,10.7,10.7,10.7H448c5.9,0,10.7-4.8,10.7-10.7
			S453.9,405.3,448,405.3z"/>
	</g>
</g>
<g>
	<g>
		<path class="st0" d="M448,448h-21.3c-5.9,0-10.7,4.7-10.7,10.6s4.8,10.7,10.7,10.7H448c5.9,0,10.7-4.7,10.7-10.6
			S453.9,448,448,448z"/>
	</g>
</g>
<g>
	<g>
		<path class="st0" d="M341.4,234.6h-42.7c-5.9,0-10.7,4.8-10.7,10.7V288c0,5.9,4.8,10.7,10.7,10.7h42.7c5.9,0,10.6-4.8,10.7-10.7
			v-42.7C352,239.4,347.2,234.6,341.4,234.6z M330.6,277.3h-21.3V256h21.3V277.3z"/>
	</g>
</g>
<g>
	<g>
		<path class="st0" d="M255.9,234.6h-85.3c-5.9,0-10.7,4.8-10.7,10.7s4.8,10.7,10.7,10.7h85.3c5.9,0,10.7-4.8,10.7-10.7
			S261.9,234.6,255.9,234.6z"/>
	</g>
</g>
<g>
	<g>
		<path class="st0" d="M255.9,277.3h-85.3c-5.9,0-10.7,4.8-10.7,10.7s4.8,10.7,10.7,10.7h85.3c5.9,0,10.7-4.8,10.7-10.7
			S261.9,277.3,255.9,277.3z"/>
	</g>
</g>
</svg>
