<?xml version="1.0" encoding="utf-8"?>
<!-- Generator: Adobe Illustrator 25.0.1, SVG Export Plug-In . SVG Version: 6.00 Build 0)  -->
<svg version="1.1" id="Capa_1" xmlns="http://www.w3.org/2000/svg" xmlns:xlink="http://www.w3.org/1999/xlink" x="0px" y="0px"
	 viewBox="0 0 512 512" style="enable-background:new 0 0 512 512;" xml:space="preserve">
<style type="text/css">
	.st0{fill:#515151;}
</style>
<g>
	<g>
		<path class="st0" d="M45,61C20.2,61,0,81.2,0,106s20.2,45,45,45s45-20.2,45-45S69.8,61,45,61z"/>
	</g>
</g>
<g>
	<g>
		<path class="st0" d="M265,404.4l-60-90C199.4,306,190,301,180,301H90v-66.6l97.3-24.3c13.4-3.3,22.7-15.3,22.7-29.1v-60
			c0-16.5-13.5-30-30-30s-30,13.5-30,30v36.6l-97.3,24.3C39.3,185.2,30,197.2,30,211v120c0,16.5,13.5,30,30,30h103.9l51.1,76.6
			c9.2,13.8,27.8,17.5,41.6,8.3C270.4,436.8,274.2,418.2,265,404.4z"/>
	</g>
</g>
<g>
	<g>
		<path class="st0" d="M497,0H135c-6.1,0-11.5,3.6-13.9,9.3c-2.3,5.6-1,12.1,3.3,16.3l37.5,38.5c5.8-1.8,11.8-3.1,18.1-3.1
			c27.9,0,51.2,19.2,57.9,45.1l8,2.7l92.4-46.2c7.4-3.7,16.4-0.7,20.1,6.7c3.7,7.4,0.7,16.4-6.7,20.1l-77.6,38.8L297.7,246
			l92.3-30.8V166c0-8.3,6.7-15,15-15c8.3,0,15,6.7,15,15v60c0,6.5-4.1,12.2-10.3,14.2l-100.9,33.6L347,331h88c8.3,0,15,6.7,15,15
			c0,8.3-6.7,15-15,15h-70.8l26.6,79.7c1.1,3.2,3.1,5.9,5.9,7.7l92,61c2.5,1.7,5.4,2.5,8.3,2.5c2.4,0,4.9-0.6,7.1-1.8
			c4.9-2.6,7.9-7.7,7.9-13.2V15C512,6.7,505.3,0,497,0z"/>
	</g>
</g>
<g>
	<g>
		<path class="st0" d="M145,404.4l-8.9-13.4H63.9L90,430.1V482c0,16.5,13.5,30,30,30s30-13.5,30-30v-61
			C150,415,148.3,409.3,145,404.4z"/>
	</g>
</g>
</svg>
