<?xml version="1.0" encoding="utf-8"?>
<!-- Generator: Adobe Illustrator 25.0.1, SVG Export Plug-In . SVG Version: 6.00 Build 0)  -->
<svg version="1.1" id="Capa_1" xmlns="http://www.w3.org/2000/svg" xmlns:xlink="http://www.w3.org/1999/xlink" x="0px" y="0px"
	 viewBox="0 0 537 537" style="enable-background:new 0 0 537 537;" xml:space="preserve">
<style type="text/css">
	.st0{fill:#515151;}
</style>
<g>
	<g>
		<circle class="st0" cx="45.9" cy="61.2" r="45.9"/>
		<circle class="st0" cx="459.6" cy="107.1" r="45.9"/>
		<path class="st0" d="M528.3,215.1c-1.1-8.8-6.6-16.5-14.7-20.1l-58.3-26.5l-49.7-25.2c-1.8-1.4-3.7-2.7-5.9-3.7l-40.6-17.4
			c-1.5-0.7-3.2-1.2-4.8-1.5L279.2,105c-13.7-2.9-27.2,5.9-30.1,19.7c-2.9,13.8,5.9,27.2,19.7,30.1l72.6,15.2l19.9,8.6l-26.6,35.3
			l-142.1-52c-15-5.5-31.7,2.2-37.2,17.3c-4.5,12.3-0.1,25.5,9.8,33l-24.8,9.1l-17-63.4l9.4-2c8.6-1.8,15.6-8,18.6-16.2l28.1-78.1
			c4.7-13.2-2.1-27.7-15.3-32.5c-13.2-4.7-27.7,2.1-32.5,15.3l-22.7,63.2l-10.4,3.8l-3.8,0.8c-3.2,0.7-6.2,2-8.8,3.8l-37.3,13.6
			c-11.3,4.1-17.5,16.8-13.9,28.2l50.9,162l0.6-0.4l5.3,56.3L40.3,479.9c-7.1,14.4-1.1,31.8,13.3,38.8c4.1,2,8.5,3,12.7,3
			c10.7,0,21.1-6,26.1-16.3l54.7-111.7c2.4-4.8,3.3-10.2,2.8-15.5l-8.7-91.7c0-0.1-0.1-0.3-0.1-0.4l14.1-8.5l0-0.1l43.4-15.9
			l43.3,37.9c5.5,4.8,12.3,7.2,19.1,7.2c8.1,0,16.1-3.4,21.9-9.9c10.6-12.1,9.3-30.4-2.7-41l0,0l44.3,16.2c1.8,0.7,3.7,1.1,5.5,1.4
			l0.3,0.5c-0.3,2.5-0.5,5.1-0.1,7.8l13.4,98.3l-6.7,99.1c-1.1,16,11,29.8,27,30.9c0.7,0,1.3,0.1,2,0.1c15.1,0,27.9-11.7,28.9-27.1
			l6.9-102.1c0.1-2,0.1-3.9-0.2-5.9l-10.9-79.8l26.3-34.2l30-40.3l32.4,14.7l6.8,57.3c1.5,12.9,12.5,22.4,25.2,22.4c1,0,2,0,3-0.2
			c13.9-1.7,23.9-14.3,22.2-28.2L528.3,215.1z"/>
	</g>
</g>
</svg>
